<svg width="153" height="149" viewBox="0 0 153 149" fill="none" xmlns="http://www.w3.org/2000/svg">
<path d="M81.1235 148.998C113.457 148.998 139.669 146.158 139.669 142.655C139.669 139.152 113.457 136.312 81.1235 136.312C48.7898 136.312 22.5781 139.152 22.5781 142.655C22.5781 146.158 48.7898 148.998 81.1235 148.998Z" fill="#C7F4FF"/>
<path fill-rule="evenodd" clip-rule="evenodd" d="M109.647 10.2327C112.488 4.18848 118.632 0 125.744 0C133.665 0 140.383 5.19206 142.676 12.3539C147.8 12.667 151.916 16.7747 151.864 22.1305C151.86 22.6344 99.1721 22.4768 99.1721 22.1305C99.141 14.0293 101.924 10.1581 108.331 10.1581C108.775 10.1581 109.214 10.183 109.645 10.2327H109.647Z" fill="#F6F6F6"/>
<path fill-rule="evenodd" clip-rule="evenodd" d="M69.412 15.5378C65.3107 6.80623 56.4361 0.757812 46.1598 0.757812C34.7202 0.757812 25.0162 8.25561 21.7028 18.6003C14.3024 19.0544 8.35769 24.9867 8.43234 32.7209C8.43856 33.4508 84.5403 33.2206 84.5403 32.7209C84.5839 21.0201 80.5675 15.4299 71.3114 15.4299C70.6686 15.4299 70.0341 15.4652 69.412 15.5357V15.5378Z" fill="#F6F6F6"/>
<path fill-rule="evenodd" clip-rule="evenodd" d="M145.08 115.356L149.61 119.887C150.183 120.457 151.11 120.457 151.682 119.887C152.252 119.317 152.252 118.388 151.682 117.818L147.151 113.287C146.581 112.717 145.652 112.717 145.082 113.287C144.512 113.857 144.512 114.786 145.082 115.356H145.08Z" fill="#C7F4FF"/>
<path fill-rule="evenodd" clip-rule="evenodd" d="M149.605 113.287L145.074 117.818C144.504 118.388 144.504 119.317 145.074 119.887C145.646 120.457 146.573 120.457 147.146 119.887L151.676 115.356C152.248 114.786 152.248 113.857 151.676 113.287C151.106 112.717 150.177 112.717 149.607 113.287H149.605Z" fill="#C7F4FF"/>
<path fill-rule="evenodd" clip-rule="evenodd" d="M0.423754 54.3876L4.95436 58.9182C5.52458 59.4905 6.45143 59.4905 7.02372 58.9182C7.59601 58.346 7.59393 57.4191 7.02372 56.8489L2.49311 52.3183C1.9229 51.7481 0.993968 51.7481 0.423754 52.3183C-0.14646 52.8906 -0.14646 53.8174 0.423754 54.3897V54.3876Z" fill="#C7F4FF"/>
<path fill-rule="evenodd" clip-rule="evenodd" d="M4.95436 52.3204L0.423754 56.851C-0.14646 57.4212 -0.14646 58.3501 0.423754 58.9203C0.993968 59.4905 1.9229 59.4926 2.49311 58.9203L7.02372 54.3897C7.59393 53.8174 7.59393 52.8906 7.02372 52.3183C6.45351 51.7481 5.52458 51.7481 4.95436 52.3183V52.3204Z" fill="#C7F4FF"/>
<path fill-rule="evenodd" clip-rule="evenodd" d="M126.688 36.5908L131.218 41.1214C131.788 41.6937 132.717 41.6937 133.288 41.1214C133.86 40.5512 133.86 39.6222 133.288 39.052L128.757 34.5214C128.185 33.9512 127.258 33.9512 126.685 34.5214C126.115 35.0937 126.115 36.0206 126.685 36.5928L126.688 36.5908Z" fill="#C7F4FF"/>
<path fill-rule="evenodd" clip-rule="evenodd" d="M131.222 34.5235L126.691 39.0541C126.121 39.6243 126.121 40.5532 126.691 41.1235C127.262 41.6937 128.19 41.6957 128.763 41.1235L133.293 36.5928C133.866 36.0206 133.866 35.0937 133.293 34.5214C132.723 33.9512 131.794 33.9512 131.224 34.5214L131.222 34.5235Z" fill="#C7F4FF"/>
<g clip-path="url(#clip0_373_100235)">
<path d="M86.4537 115.047H78.5443C77.5331 115.047 76.7148 115.865 76.7148 116.876C76.7148 117.887 77.5356 118.705 78.5443 118.705H86.4537C87.4649 118.705 88.2831 117.887 88.2831 116.876C88.2831 115.865 87.4623 115.047 86.4537 115.047Z" fill="#497E8F"/>
<path d="M124.73 48H40.266C35.156 48 30.998 52.1575 30.998 57.2669V118.441C30.998 123.55 35.156 127.708 40.266 127.708H66.1196L60.832 139.336H53.1542C52.143 139.336 51.3248 140.155 51.3248 141.166C51.3248 142.177 52.1456 142.995 53.1542 142.995H62.0028C62.0028 142.995 62.0079 142.995 62.0131 142.995C62.0131 142.995 62.0182 142.995 62.0208 142.995H102.978C102.978 142.995 102.983 142.995 102.986 142.995C102.988 142.995 102.991 142.995 102.996 142.995H111.844C112.856 142.995 113.674 142.177 113.674 141.166C113.674 140.155 112.853 139.336 111.844 139.336H104.167L98.8791 127.708H124.733C129.843 127.708 134.001 123.55 134.001 118.441V57.2669C134.001 52.1575 129.843 48 124.733 48H124.73ZM40.266 51.661H124.73C127.823 51.661 130.337 54.1771 130.337 57.2669V106.439H34.6594V57.2669C34.6594 54.1745 37.1758 51.661 40.266 51.661ZM100.14 139.339H64.8562L70.1438 127.71H94.8549L100.142 139.339H100.14ZM124.73 124.049H40.266C37.1733 124.049 34.6594 121.533 34.6594 118.443V110.1H130.337V118.443C130.337 121.536 127.82 124.049 124.73 124.049Z" fill="#497E8F"/>
<path d="M45.7722 84.6143C45.8134 84.6169 45.924 84.6246 45.9832 84.7661C46.0424 84.9076 45.9677 84.9899 45.942 85.0208C44.5912 86.5618 44.6684 88.9056 46.1195 90.3566L49.1017 93.3384C50.5503 94.7868 52.8943 94.8666 54.4381 93.5159C54.4689 93.4876 54.5539 93.4156 54.6928 93.4747C54.8343 93.5339 54.842 93.6445 54.8446 93.6857C54.981 95.731 56.692 97.3338 58.7427 97.3338H62.9599C65.0106 97.3338 66.7216 95.731 66.858 93.6857C66.8605 93.6445 66.8683 93.5339 67.0098 93.4747C67.1513 93.4181 67.2336 93.4902 67.2671 93.5159C68.8109 94.8666 71.1523 94.7894 72.6035 93.3384L75.5856 90.3566C77.0342 88.9082 77.114 86.5618 75.7631 85.0208C75.7348 84.9899 75.6628 84.905 75.722 84.7661C75.7812 84.6246 75.8918 84.6169 75.933 84.6143C77.9785 84.4779 79.5815 82.7671 79.5815 80.7166V76.5C79.5815 74.4495 77.9785 72.7387 75.933 72.6023C75.8918 72.5997 75.7812 72.592 75.722 72.4505C75.6628 72.309 75.7374 72.2267 75.7631 72.1958C77.114 70.6522 77.0368 68.3084 75.5856 66.86L72.6035 63.8782C71.1549 62.4298 68.8109 62.35 67.2671 63.7007C67.2362 63.729 67.1513 63.8011 67.0098 63.7419C66.8683 63.6827 66.8605 63.5721 66.858 63.5309C66.7216 61.4856 65.0106 59.8828 62.9599 59.8828H58.7427C56.692 59.8828 54.981 61.4856 54.8446 63.5309C54.842 63.5721 54.8343 63.6827 54.6928 63.7419C54.5513 63.8011 54.4689 63.7264 54.4355 63.7007C52.8917 62.35 50.5477 62.4272 49.0991 63.8782L46.117 66.86C44.6658 68.311 44.5886 70.6548 45.9394 72.1958C45.9677 72.2267 46.0398 72.3116 45.9806 72.4531C45.9214 72.5946 45.8108 72.6023 45.7696 72.6049C43.7241 72.7412 42.1211 74.4521 42.1211 76.5025V80.7192C42.1211 82.7697 43.7241 84.4805 45.7696 84.6169L45.7722 84.6143ZM45.7851 76.5C45.7851 76.3713 45.8854 76.2633 46.0141 76.2556C47.509 76.1578 48.7929 75.2368 49.3641 73.8526C49.9379 72.4685 49.6806 70.9095 48.6951 69.7826C48.6102 69.6848 48.6154 69.5382 48.7054 69.4482L51.6875 66.4664C51.7776 66.3763 51.9268 66.3712 52.022 66.4561C53.149 67.4414 54.7082 67.6987 56.0899 67.125C57.4742 66.5513 58.3954 65.2675 58.4931 63.7753C58.5008 63.6467 58.6089 63.5464 58.7376 63.5464H62.9547C63.0834 63.5464 63.1914 63.6467 63.1992 63.7753C63.2969 65.2701 64.2181 66.5539 65.6023 67.125C66.9866 67.6987 68.5459 67.4414 69.6703 66.4561C69.768 66.3712 69.9147 66.3763 70.0073 66.4664L72.9894 69.4482C73.0795 69.5382 73.0846 69.6874 72.9997 69.7826C72.0143 70.9095 71.757 72.4685 72.3308 73.8526C72.9045 75.2368 74.1885 76.1552 75.6808 76.2556C75.8095 76.2633 75.9098 76.3713 75.9098 76.5V80.7166C75.9098 80.8453 75.8095 80.9533 75.6808 80.9611C74.1859 81.0588 72.902 81.9798 72.3308 83.364C71.757 84.7481 72.0143 86.3071 72.9997 87.434C73.0846 87.5318 73.0795 87.6784 72.9894 87.7684L70.0073 90.7502C69.9173 90.8428 69.768 90.8454 69.6703 90.7605C68.5433 89.7752 66.984 89.5179 65.6023 90.0916C64.2181 90.6653 63.2969 91.9491 63.1992 93.4413C63.1914 93.5699 63.0834 93.6702 62.9547 93.6702H58.7376C58.6089 93.6702 58.5008 93.5699 58.4931 93.4413C58.3954 91.9465 57.4742 90.6628 56.0899 90.0916C55.6011 89.8884 55.0916 89.7906 54.5873 89.7906C53.661 89.7906 52.7502 90.1225 52.022 90.7605C51.9242 90.8454 51.7776 90.8403 51.685 90.7502L48.7028 87.7684C48.6128 87.6784 48.6076 87.5292 48.6925 87.4314C49.678 86.3046 49.9353 84.7455 49.3615 83.364C48.7878 81.9798 47.5038 81.0614 46.0115 80.9611C45.8828 80.9533 45.7825 80.8453 45.7825 80.7166V76.5H45.7851Z" fill="#6BD3FB"/>
<path d="M60.851 86.9267C65.4413 86.9267 69.1747 83.1937 69.1747 78.604C69.1747 74.0143 65.4413 70.2812 60.851 70.2812C56.2608 70.2812 52.5273 74.0143 52.5273 78.604C52.5273 83.1937 56.2608 86.9267 60.851 86.9267ZM60.851 73.9448C63.4214 73.9448 65.5133 76.0364 65.5133 78.6065C65.5133 81.1767 63.4214 83.2683 60.851 83.2683C58.2806 83.2683 56.1887 81.1767 56.1887 78.6065C56.1887 76.0364 58.2806 73.9448 60.851 73.9448Z" fill="#497E8F"/>
<path d="M87.1907 64.9396H90.5974C91.6086 64.9396 92.4268 64.1215 92.4268 63.1104C92.4268 62.0994 91.606 61.2812 90.5974 61.2812H87.1907C86.1795 61.2812 85.3613 62.0994 85.3613 63.1104C85.3613 64.1215 86.1821 64.9396 87.1907 64.9396Z" fill="#497E8F"/>
<path d="M98.1282 64.9396H118.774C119.785 64.9396 120.603 64.1215 120.603 63.1104C120.603 62.0994 119.783 61.2812 118.774 61.2812H98.1282C97.117 61.2812 96.2988 62.0994 96.2988 63.1104C96.2988 64.1215 97.1196 64.9396 98.1282 64.9396Z" fill="#497E8F"/>
<path d="M87.1907 73.9475H90.5974C91.6086 73.9475 92.4268 73.1293 92.4268 72.1183C92.4268 71.1072 91.606 70.2891 90.5974 70.2891H87.1907C86.1795 70.2891 85.3613 71.1072 85.3613 72.1183C85.3613 73.1293 86.1821 73.9475 87.1907 73.9475Z" fill="#497E8F"/>
<path d="M98.1282 73.9475H118.774C119.785 73.9475 120.603 73.1293 120.603 72.1183C120.603 71.1072 119.783 70.2891 118.774 70.2891H98.1282C97.117 70.2891 96.2988 71.1072 96.2988 72.1183C96.2988 73.1293 97.1196 73.9475 98.1282 73.9475Z" fill="#497E8F"/>
<path d="M87.1907 98.6925H118.072C119.083 98.6925 119.901 97.8743 119.901 96.8633V81.1183C119.901 80.1072 119.081 79.2891 118.072 79.2891H87.1907C86.1795 79.2891 85.3613 80.1072 85.3613 81.1183V96.8633C85.3613 97.8743 86.1821 98.6925 87.1907 98.6925ZM89.0227 82.9475H116.245V95.0315H89.0227V82.9475Z" fill="#6BD3FB"/>
</g>
<defs>
<clipPath id="clip0_373_100235">
<rect width="103" height="95" fill="white" transform="translate(30.998 48)"/>
</clipPath>
</defs>
</svg>
