<svg width="39" height="39" viewBox="0 0 39 39" fill="none" xmlns="http://www.w3.org/2000/svg">
<path fill-rule="evenodd" clip-rule="evenodd" d="M6.84211 2.56579H32.1579C34.5196 2.56579 36.4342 4.48036 36.4342 6.84211V13H2.56579V6.8421C2.56579 4.48036 4.48036 2.56579 6.84211 2.56579ZM2.56579 15.5658V32.1579C2.56579 34.5196 4.48036 36.4342 6.8421 36.4342H32.1579C34.5196 36.4342 36.4342 34.5196 36.4342 32.1579V15.5658H2.56579ZM0 6.8421C0 3.06331 3.06332 0 6.84211 0H32.1579C35.9367 0 39 3.06332 39 6.84211V32.1579C39 35.9367 35.9367 39 32.1579 39H6.8421C3.06331 39 0 35.9367 0 32.1579V6.8421ZM4.875 8.38446C4.875 7.67593 5.44937 7.10156 6.15789 7.10156H7.52632C8.23484 7.10156 8.80921 7.67593 8.80921 8.38446C8.80921 9.09298 8.23484 9.66735 7.52632 9.66735H6.15789C5.44937 9.66735 4.875 9.09298 4.875 8.38446ZM12.1423 7.10156C11.4337 7.10156 10.8594 7.67593 10.8594 8.38446C10.8594 9.09298 11.4337 9.66735 12.1423 9.66735H13.5107C14.2192 9.66735 14.7936 9.09298 14.7936 8.38446C14.7936 7.67593 14.2192 7.10156 13.5107 7.10156H12.1423ZM16.8438 8.38446C16.8438 7.67593 17.4181 7.10156 18.1266 7.10156H19.4951C20.2036 7.10156 20.778 7.67593 20.778 8.38446C20.778 9.09298 20.2036 9.66735 19.4951 9.66735H18.1266C17.4181 9.66735 16.8438 9.09298 16.8438 8.38446ZM13.202 19.2489C12.6676 18.7145 11.8012 18.7145 11.2668 19.2489C10.7324 19.7833 10.7324 20.6497 11.2668 21.1841L11.9632 21.8806L11.2957 22.548C10.7613 23.0824 10.7613 23.9488 11.2957 24.4832C11.8301 25.0176 12.6966 25.0176 13.231 24.4832L13.8984 23.8158L14.5929 24.5103C15.1273 25.0447 15.9938 25.0447 16.5282 24.5103C17.0626 23.9759 17.0626 23.1095 16.5282 22.5751L15.8337 21.8806L16.5572 21.1571C17.0916 20.6227 17.0916 19.7562 16.5572 19.2218C16.0228 18.6874 15.1563 18.6874 14.6219 19.2218L13.8984 19.9453L13.202 19.2489ZM24.327 19.2489C23.7926 18.7145 22.9262 18.7145 22.3918 19.2489C21.8574 19.7833 21.8574 20.6497 22.3918 21.1841L23.0882 21.8806L22.4207 22.548C21.8863 23.0824 21.8863 23.9488 22.4207 24.4832C22.9551 25.0176 23.8216 25.0176 24.356 24.4832L25.0234 23.8158L25.7179 24.5103C26.2523 25.0447 27.1188 25.0447 27.6532 24.5103C28.1876 23.9759 28.1876 23.1095 27.6532 22.5751L26.9587 21.8806L27.6822 21.1571C28.2166 20.6227 28.2166 19.7562 27.6822 19.2218C27.1478 18.6874 26.2813 18.6874 25.7469 19.2218L25.0234 19.9453L24.327 19.2489ZM17.1557 30.8703C18.0126 30.0192 18.7954 29.7141 19.4694 29.7142C20.1489 29.7143 20.9597 30.0245 21.8665 30.8889C22.3794 31.3777 23.1914 31.3583 23.6803 30.8454C24.1691 30.3325 24.1497 29.5205 23.6368 29.0316C22.4055 27.8579 20.9926 27.1486 19.4697 27.1484C17.9414 27.1483 16.5433 27.8622 15.3476 29.0499C14.8449 29.5492 14.8421 30.3615 15.3414 30.8642C15.8408 31.3669 16.653 31.3696 17.1557 30.8703Z" fill="#9CA3AF"/>
</svg>
