<svg width="153" height="149" viewBox="0 0 153 149" fill="none" xmlns="http://www.w3.org/2000/svg">
<g clip-path="url(#clip0_238_75633)">
<path d="M81.1294 148.998C113.463 148.998 139.675 146.158 139.675 142.655C139.675 139.152 113.463 136.312 81.1294 136.312C48.7957 136.312 22.584 139.152 22.584 142.655C22.584 146.158 48.7957 148.998 81.1294 148.998Z" fill="#C7F4FF"/>
<path fill-rule="evenodd" clip-rule="evenodd" d="M109.657 10.2327C112.498 4.18848 118.642 0 125.754 0C133.675 0 140.393 5.19206 142.686 12.3539C147.81 12.667 151.926 16.7747 151.874 22.1305C151.87 22.6344 99.1819 22.4768 99.1819 22.1305C99.1508 14.0293 101.933 10.1581 108.341 10.1581C108.784 10.1581 109.224 10.183 109.655 10.2327H109.657Z" fill="#F6F6F6"/>
<path fill-rule="evenodd" clip-rule="evenodd" d="M69.416 15.5378C65.3146 6.80623 56.44 0.757812 46.1637 0.757812C34.7241 0.757812 25.0201 8.25561 21.7067 18.6003C14.3063 19.0544 8.3616 24.9867 8.43624 32.7209C8.44246 33.4508 84.5442 33.2206 84.5442 32.7209C84.5878 21.0201 80.5714 15.4299 71.3153 15.4299C70.6725 15.4299 70.038 15.4652 69.416 15.5357V15.5378Z" fill="#F6F6F6"/>
<path fill-rule="evenodd" clip-rule="evenodd" d="M145.08 115.356L149.61 119.887C150.183 120.457 151.11 120.457 151.682 119.887C152.252 119.317 152.252 118.388 151.682 117.818L147.151 113.287C146.581 112.717 145.652 112.717 145.082 113.287C144.512 113.857 144.512 114.786 145.082 115.356H145.08Z" fill="#C7F4FF"/>
<path fill-rule="evenodd" clip-rule="evenodd" d="M149.609 113.287L145.078 117.818C144.508 118.388 144.508 119.317 145.078 119.887C145.65 120.457 146.577 120.457 147.149 119.887L151.68 115.356C152.252 114.786 152.252 113.857 151.68 113.287C151.11 112.717 150.181 112.717 149.611 113.287H149.609Z" fill="#C7F4FF"/>
<path fill-rule="evenodd" clip-rule="evenodd" d="M0.42766 54.3876L4.95827 58.9182C5.52848 59.4905 6.45534 59.4905 7.02763 58.9182C7.59991 58.346 7.59784 57.4191 7.02763 56.8489L2.49702 52.3183C1.9268 51.7481 0.997874 51.7481 0.42766 52.3183C-0.142553 52.8906 -0.142553 53.8174 0.42766 54.3897V54.3876Z" fill="#C7F4FF"/>
<path fill-rule="evenodd" clip-rule="evenodd" d="M4.96022 52.3204L0.429614 56.851C-0.1406 57.4212 -0.1406 58.3501 0.429614 58.9203C0.999827 59.4905 1.92876 59.4926 2.49897 58.9203L7.02958 54.3897C7.59979 53.8174 7.59979 52.8906 7.02958 52.3183C6.45937 51.7481 5.53044 51.7481 4.96022 52.3183V52.3204Z" fill="#C7F4FF"/>
<path fill-rule="evenodd" clip-rule="evenodd" d="M126.691 36.5908L131.222 41.1214C131.792 41.6937 132.721 41.6937 133.291 41.1214C133.864 40.5512 133.864 39.6222 133.291 39.052L128.761 34.5214C128.189 33.9512 127.262 33.9512 126.689 34.5214C126.119 35.0937 126.119 36.0206 126.689 36.5928L126.691 36.5908Z" fill="#C7F4FF"/>
<path fill-rule="evenodd" clip-rule="evenodd" d="M131.222 34.5235L126.691 39.0541C126.121 39.6243 126.121 40.5532 126.691 41.1235C127.262 41.6937 128.19 41.6957 128.763 41.1235L133.293 36.5928C133.866 36.0206 133.866 35.0937 133.293 34.5214C132.723 33.9512 131.794 33.9512 131.224 34.5214L131.222 34.5235Z" fill="#C7F4FF"/>
<path d="M37.4666 139.584L30.6489 85.646C30.3171 83.0043 32.2206 80.8438 34.883 80.8438H92.3315L37.4645 139.584H37.4666Z" fill="#C7F4FF"/>
<path fill-rule="evenodd" clip-rule="evenodd" d="M38.918 139.397L32.1024 85.4587C31.8826 83.7231 33.135 82.3028 34.8829 82.3028H63.0494C63.8581 82.3028 64.5133 81.6476 64.5133 80.8389C64.5133 80.0302 63.8581 79.375 63.0494 79.375H34.8829C31.3082 79.375 28.7495 82.2758 29.1974 85.8257L36.0151 139.764C36.1146 140.564 36.8486 141.134 37.6511 141.033C38.4514 140.931 39.0216 140.199 38.92 139.397H38.918Z" fill="#497E8F"/>
<path d="M94.9221 65.9813H88.2578C88.4528 66.7651 88.5647 67.5883 88.5647 68.4405V77.3773C88.5647 82.503 84.7909 86.6998 80.1753 86.6998C75.5597 86.6998 71.7859 82.5051 71.7859 77.3773V68.4405C71.7859 67.5883 71.9 66.7651 72.0949 65.9813H65.4306C60.3028 65.9813 58.5922 62.6015 61.6278 58.469L74.6557 40.7384C77.6913 36.608 82.6615 36.608 85.6971 40.7384L98.727 58.469C101.763 62.6015 100.052 65.9813 94.9242 65.9813H94.9221Z" fill="#6BD3FB"/>
<path fill-rule="evenodd" clip-rule="evenodd" d="M70.3647 67.4397H65.4277C62.1453 67.4397 60.0407 66.1727 59.1594 64.431C58.2782 62.6872 58.5021 60.2425 60.445 57.5967L64.3536 52.2761C64.8326 51.625 65.749 51.4861 66.4001 51.963C67.0512 52.442 67.1922 53.3585 66.7132 54.0096L62.8047 59.3281C61.7099 60.819 61.2744 62.1253 61.77 63.106C62.2676 64.0868 63.5781 64.5098 65.4277 64.5098H72.0919C72.5418 64.5098 72.9669 64.7171 73.2448 65.0717C73.5226 65.4263 73.6221 65.8887 73.5122 66.3262C73.3443 66.998 73.2468 67.703 73.2468 68.4329V77.3697C73.2468 81.6515 76.3177 85.2282 80.1723 85.2282C84.027 85.2282 87.0978 81.6515 87.0978 77.3697C87.0978 76.5631 87.7531 75.9058 88.5617 75.9058C89.3704 75.9058 90.0256 76.5631 90.0256 77.3697C90.0256 83.3414 85.5489 88.154 80.1723 88.154C74.7957 88.154 70.3191 83.3414 70.3191 77.3697V68.4329C70.3191 68.097 70.3336 67.7652 70.3647 67.4376V67.4397Z" fill="#497E8F"/>
<path fill-rule="evenodd" clip-rule="evenodd" d="M75.8333 41.6024C77.0339 39.9664 78.5911 39.0997 80.1752 39.0997C81.7594 39.0997 83.3145 39.9664 84.5151 41.6024L97.545 59.3329C98.6398 60.8238 99.0752 62.1301 98.5776 63.1109C98.08 64.0916 96.7695 64.5146 94.922 64.5146C94.1133 64.5146 93.4581 65.1698 93.4581 65.9785C93.4581 66.7872 94.1133 67.4424 94.922 67.4424C98.2044 67.4424 100.309 66.1755 101.19 64.4337C102.071 62.6899 101.848 60.2453 99.9046 57.5995L86.8747 39.8689C85.0418 37.3724 82.595 36.1719 80.1752 36.1719C77.7555 36.1719 75.3108 37.3704 73.4737 39.8689C72.9947 40.52 73.1357 41.4365 73.7868 41.9155C74.4379 42.3945 75.3543 42.2535 75.8333 41.6024Z" fill="#497E8F"/>
<path d="M37.4669 139.579H123.64L134.613 77.2891H92.8171C90.1547 77.2891 86.6691 79.0329 85.0704 81.1624L77.3238 91.4905H53.2795C50.6171 91.4905 47.9526 93.6138 47.3617 96.2098L37.4648 139.579H37.4669Z" fill="white"/>
<path fill-rule="evenodd" clip-rule="evenodd" d="M77.3256 90.0255H53.2812C49.9761 90.0255 46.6709 92.6609 45.9348 95.8832L41.3379 116.027C41.1575 116.815 41.653 117.601 42.4389 117.779C43.2268 117.96 44.0127 117.466 44.191 116.678L48.788 96.5322C49.2379 94.5623 51.2596 92.9512 53.2792 92.9512H77.3235C78.1301 92.9512 78.7874 92.2939 78.7874 91.4873C78.7874 90.6807 78.1301 90.0234 77.3235 90.0234L77.3256 90.0255Z" fill="#497E8F"/>
<path fill-rule="evenodd" clip-rule="evenodd" d="M132.868 78.7559H92.816C92.0073 78.7559 91.3521 78.1007 91.3521 77.292C91.3521 76.4834 92.0073 75.8281 92.816 75.8281H134.612C135.045 75.8281 135.456 76.0189 135.733 76.3506C136.011 76.6824 136.129 77.1199 136.053 77.545L125.08 139.833C124.955 140.532 124.348 141.044 123.637 141.044H37.4658C36.6572 141.044 36.002 140.387 36.002 139.58C36.002 138.774 36.6572 138.116 37.4658 138.116H122.411L132.868 78.7538V78.7559Z" fill="#497E8F"/>
<path d="M94.7539 133.771L97.1053 120.422H121.15L118.798 133.771H94.756H94.7539Z" fill="#C7F4FF"/>
</g>
<defs>
<clipPath id="clip0_238_75633">
<rect width="152.108" height="149" fill="white"/>
</clipPath>
</defs>
</svg>
