<svg width="18" height="11" viewBox="0 0 18 11" fill="none" xmlns="http://www.w3.org/2000/svg">
<path d="M9.70358 10.46L9.70369 10.4599L17.2008 2.96276C17.2974 2.87185 17.375 2.7626 17.4291 2.64137C17.4837 2.5187 17.5131 2.38628 17.5155 2.25202C17.5178 2.11775 17.4931 1.98437 17.4428 1.85985C17.3926 1.73534 17.3177 1.62223 17.2227 1.52727C17.1278 1.43231 17.0147 1.35745 16.8901 1.30716C16.7656 1.25686 16.6323 1.23216 16.498 1.23453C16.3637 1.2369 16.2313 1.26629 16.1086 1.32094C15.9874 1.37496 15.8782 1.45256 15.7872 1.5492L8.99692 8.33953L2.20369 1.54631L2.2038 1.5462L2.19735 1.54018C2.00778 1.36354 1.75705 1.26738 1.49798 1.27195C1.23892 1.27652 0.991736 1.38147 0.808518 1.56468C0.625301 1.7479 0.520352 1.99508 0.515781 2.25415C0.51121 2.51322 0.607374 2.76395 0.784014 2.95351L0.7839 2.95362L0.79014 2.95986L8.29014 10.4599L8.29025 10.46C8.47775 10.6472 8.73192 10.7524 8.99692 10.7524C9.26192 10.7524 9.51608 10.6472 9.70358 10.46Z" fill="#58585A" stroke="#58585A" stroke-width="0.5"/>
</svg>
