<svg width="231" height="101" viewBox="0 0 231 101" fill="none" xmlns="http://www.w3.org/2000/svg">
<path d="M81.2734 100.618C81.2734 100.618 98.7302 48.2634 99.6958 45.7152C100.661 43.167 104.003 39.6933 107.509 39.6933H120.55C120.55 39.6933 113.799 45.0541 112.974 50.3629H115.602C115.602 50.3629 121.111 39.6933 135.391 39.6933C149.67 39.6933 152.867 47.5783 152.867 47.5783L155.64 39.6933H168.117L169.667 34.8493L193.478 24.3359L188.426 39.6933H200.073L201.62 34.8493L225.431 24.3359L220.379 39.6933H230.996L227.699 50.0023H216.981C216.981 50.0023 212.137 65.3636 209.665 72.3711C207.193 79.3787 216.881 78.349 216.881 78.349L214.409 85.5649H198.222C191.419 85.5649 186.831 80.0839 188.33 75.4642C189.824 70.8446 196.576 50.0023 196.576 50.0023H185.033C185.033 50.0023 180.261 65.2153 177.716 72.3711C175.168 79.5269 184.932 78.4532 184.932 78.4532L182.456 85.5649H165.036C159.054 85.5649 155.019 80.0278 156.477 75.4642C157.936 70.9007 164.623 50.0023 164.623 50.0023H154.11C154.11 50.0023 157.307 58.1437 149.266 71.65C141.016 85.5649 112.361 85.5649 112.361 85.5649L115.041 77.8362C115.041 77.8362 125.35 77.0108 131.224 65.2594C133.183 60.9283 133.8 58.8689 134.521 55.88C135.242 52.891 133.9 50.0063 130.19 50.0063H118.956C118.956 50.0063 104.792 92.3561 103.807 95.4652C102.821 98.5703 99.5796 100.722 97.2077 100.722C94.8358 100.722 81.2815 100.618 81.2815 100.618H81.2734Z" fill="#1B1464"/>
<path d="M46.6779 0.00334659C42.1815 10.7459 39.6073 17.1714 40.4687 26.3176C41.3808 36.0763 48.0899 43.9006 54.2349 50.4365C59.184 55.7107 62.1839 59.0406 63.5622 65.1013C64.5148 69.2912 65.6128 78.1898 59.2482 86.737C51.6371 96.9609 39.3438 97.3256 39.3438 97.3256V100.401C39.3438 100.401 53.9883 99.8255 63.9608 90.8567C70.8456 84.6588 73.2914 79.2641 75.0954 70.921C76.6291 63.8262 74.7914 53.7195 70.322 45.9487C67.8187 41.5881 65.0587 37.9537 62.4305 34.9217C57.2348 28.9213 53.5052 24.9221 50.2047 20.1365C47.1407 15.7089 45.2421 11.9574 45.2421 8.06864C45.2421 4.1799 46.7758 0.321273 46.7758 0.321273L46.6846 0L46.6779 0.00334659Z" fill="#00ADEF"/>
<path d="M28.9447 0C33.4378 10.7426 36.0086 17.168 35.1505 26.3143C34.2384 36.0729 27.536 43.8973 21.3843 50.4332C16.4318 55.7074 13.4387 59.0373 12.057 65.0979C11.1077 69.2879 10.0098 78.1865 16.3676 86.7337C23.9889 96.9575 36.2788 97.3223 36.2788 97.3223V100.398C36.2788 100.398 21.6309 99.8222 11.6618 90.8533C4.77359 84.6588 2.33114 79.2607 0.530554 70.9177C-0.999778 63.8229 0.837972 53.7162 5.3006 45.9454C7.81061 41.5848 10.5639 37.9504 13.1854 34.9184C18.3946 28.9179 22.1174 24.9187 25.4213 20.1331C28.4819 15.7056 30.3805 11.954 30.3805 8.06529C30.3805 4.17655 28.8569 0.317926 28.8569 0.317926L28.9481 0H28.9447Z" fill="#00ADEF"/>
<path d="M42.5972 40.1774C44.7356 43.6478 50.1509 50.2138 54.5392 54.3904C59.0458 58.6807 61.8125 64.7514 61.8125 71.4413C61.8125 84.5666 51.0664 95.2155 37.8137 95.2155C24.5609 95.2155 13.8047 84.5666 13.8047 71.4413C13.8047 64.8753 16.4971 58.9284 20.8381 54.628C22.9428 52.5397 29.3377 46.0005 32.9355 40.1774C36.7901 33.9862 37.8137 28.5547 37.8137 28.5547C37.8137 28.5547 38.7731 33.9728 42.5972 40.1774Z" fill="#1B1464"/>
<path d="M57.4232 71.4459C57.4232 82.1785 48.6432 90.8763 37.8092 90.8763C26.9753 90.8763 18.1953 82.1785 18.1953 71.4459C18.1953 60.7134 26.9719 52.0156 37.8092 52.0156C48.6466 52.0156 57.4232 60.7168 57.4232 71.4459Z" fill="#ED1B24"/>
</svg>
